<svg width="38" height="68" viewBox="0 0 38 68" fill="none" xmlns="http://www.w3.org/2000/svg">
<path d="M9.6499 7.62939e-06L23.6912 7.62939e-06C28.2794 7.62939e-06 31.9987 3.42413 31.9987 7.64785L31.9987 15.2922C31.9987 16.3535 31.8248 17.4086 31.4827 18.4222C31.1565 19.3888 30.983 20.3938 30.9678 21.4062L30.7085 38.6316C30.6851 40.1837 30.7928 41.7347 31.0311 43.2713L31.0572 43.4417C31.7392 43.1767 32.8892 42.7327 33.0243 42.7017C33.0326 42.6998 33.041 42.6986 33.0495 42.6986C33.2417 42.6986 33.4963 43.1701 33.218 43.6823C32.9814 44.118 31.7735 44.938 31.3337 45.2271L31.6734 47.4195C31.8901 48.8191 31.9987 50.2308 31.9987 51.6444V54.6521C31.9987 60.1149 27.1886 64.5428 21.2551 64.5428L12.0858 64.5428C6.1522 64.5428 1.34193 60.1149 1.34193 54.6521V51.6444C1.34193 50.2308 1.4511 48.8191 1.66776 47.4195L2.00707 45.2271C1.56744 44.938 0.359389 44.118 0.122922 43.6823C-0.155275 43.1701 0.0993165 42.6986 0.291104 42.6986C0.299955 42.6986 0.308385 42.6998 0.316393 42.7017C0.45212 42.7327 1.602 43.1767 2.28358 43.4417L2.31014 43.2713C2.54787 41.7347 2.65578 40.1837 2.6326 38.6316L2.37337 21.4062C2.35819 20.3938 2.18453 19.3888 1.85828 18.4222C1.51602 17.4086 1.34193 16.3535 1.34193 15.2922L1.34193 7.64785C1.34193 3.42413 5.06176 7.62939e-06 9.6499 7.62939e-06" fill="#D8D5E6"/>
<path d="M35.5954 50.4955C35.8123 51.8948 35.921 53.3069 35.921 54.7201V57.7278C35.921 63.1902 31.1108 67.6185 25.1772 67.6185H20.5927L16.0081 67.6185C10.0746 67.6185 5.26431 63.1902 5.26431 57.7278V54.7201C5.26431 53.3069 5.37306 51.8948 5.58971 50.4955L6.2321 46.347C6.47025 44.8104 6.57816 43.2594 6.55455 41.7072L6.29532 24.4818C6.28015 23.4695 6.10691 22.4644 5.78024 21.4978C5.43839 20.4843 5.26431 19.4292 5.26431 18.3679L5.26431 10.7231C5.26431 6.49973 8.98372 3.07529 13.5719 3.07529L20.5927 3.07529L27.6133 3.07529C32.2015 3.07529 35.921 6.49973 35.921 10.7231L35.921 18.3679C35.921 19.4292 35.7471 20.4843 35.405 21.4978C35.0786 22.4644 34.9052 23.4695 34.8901 24.4818L34.6308 41.7072C34.6072 43.2594 34.7151 44.8104 34.953 46.347L35.5954 50.4955Z" fill="#E5E0E9"/>
<path d="M6.43447 49.6419C6.23004 50.9628 6.12719 52.295 6.12719 53.629V56.4671C6.12719 61.6222 10.6664 65.801 16.2663 65.801H20.5927H24.9191C30.5186 65.801 35.0579 61.6222 35.0579 56.4671V53.629C35.0579 52.295 34.9553 50.9628 34.7507 49.6419L34.1444 45.7274C33.9199 44.2773 33.8182 42.8136 33.8403 41.3488L34.085 25.0931C34.0993 24.1381 34.263 23.1894 34.5709 22.2775C34.8938 21.321 35.0579 20.3253 35.0579 19.3237L35.0579 12.1098C35.0579 8.1234 31.5479 4.89225 27.2181 4.89225L20.5927 4.89225L13.9673 4.89225C9.63753 4.89225 6.12719 8.1234 6.12719 12.1098L6.12719 19.3237C6.12719 20.3253 6.29158 21.321 6.61446 22.2775C6.92258 23.1894 7.08613 24.1381 7.10046 25.0931L7.34535 41.3488C7.36727 42.8136 7.26569 44.2773 7.04103 45.7274L6.43447 49.6419Z" fill="#FDFDFE"/>
<path d="M35.0956 48.4073C35.0956 48.4073 36.85 47.2932 37.1406 46.7581C37.4311 46.2234 37.1406 45.7329 36.947 45.7772C36.7532 45.8222 34.4775 46.7135 34.4775 46.7135L35.0956 48.4073Z" fill="#E5E0E9"/>
<path d="M6.09131 48.4073C6.09131 48.4073 4.33699 47.2932 4.04614 46.7581C3.75572 46.2234 4.04614 45.7329 4.24004 45.7772C4.43351 45.8222 6.70924 46.7135 6.70924 46.7135L6.09131 48.4073Z" fill="#E5E0E9"/>
<path d="M27.946 65.5721C27.837 65.8142 27.8081 66.0777 27.8439 66.3365C29.8004 65.6129 31.4563 64.3486 32.5943 62.7429C31.8789 63.2959 31.0783 63.7553 30.2209 64.0968C29.3458 64.4456 28.3113 64.7607 27.946 65.5721Z" fill="#6C9ED1"/>
<path d="M13.2391 65.5721C13.3483 65.8142 13.377 66.0777 13.3411 66.3365C11.3849 65.6129 9.72878 64.3486 8.59113 62.7429C9.30643 63.2959 10.1069 63.7553 10.9642 64.0968C11.8397 64.4456 12.8741 64.7607 13.2391 65.5721Z" fill="#6C9ED1"/>
<path d="M31.1137 32.1217C31.1591 35.5007 31.25 38.5965 31.25 39.7342C31.25 43.1439 34.0099 46.3538 34.0099 46.3538L34.0099 33.1306C33.0626 32.7546 32.0869 32.4406 31.1137 32.1217Z" fill="#3F4045"/>
<path d="M31.1912 23.7176C31.0759 25.8623 31.0738 28.8176 31.1076 31.6347C32.0851 31.8835 33.0551 32.1539 34.0099 32.4702L34.0099 22.441C33.0523 22.8333 32.1103 23.2558 31.1912 23.7176Z" fill="#3F4045"/>
<path d="M34.0099 21.7066V18.2054C34.0099 18.2054 31.6131 18.2725 31.25 22.8188C31.2401 22.9425 31.2309 23.0721 31.2222 23.2045C32.1366 22.6787 33.0426 22.1393 34.0099 21.7066Z" fill="#3F4045"/>
<path d="M10.0701 32.1217C10.0246 35.5007 9.93394 38.5965 9.93394 39.7342C9.93394 43.1439 7.17389 46.3538 7.17389 46.3538L7.17389 33.1306C8.12102 32.7546 9.09682 32.4406 10.0701 32.1217Z" fill="#3F4045"/>
<path d="M9.99475 23.7176C10.1102 25.8623 10.1123 28.8176 10.0786 31.6347C9.10114 31.8835 8.13083 32.1539 7.17611 32.4702L7.17611 22.441C8.13378 22.8333 9.07585 23.2558 9.99475 23.7176Z" fill="#3F4045"/>
<path d="M7.17492 21.7066L7.17492 18.2054C7.17492 18.2054 9.57163 18.2725 9.93497 22.8188C9.94466 22.9425 9.95393 23.0721 9.96278 23.2045C9.04811 22.6787 8.14228 22.1393 7.17492 21.7066Z" fill="#3F4045"/>
<path d="M11.3146 20.8127C11.3146 20.8127 15.1996 19.0076 20.5925 19.0076C25.9852 19.0076 29.8707 20.8127 29.8707 20.8127C30.6296 18.8105 30.9223 16.1268 31.0304 14.6825C31.0782 14.0415 30.7035 13.4368 30.0777 13.1517C28.4503 12.4105 24.9825 11.1183 20.5925 11.1183C16.2024 11.1183 12.735 12.4105 11.1072 13.1517C10.4816 13.4368 10.1069 14.0415 10.155 14.6825C10.2625 16.1268 10.5554 18.8105 11.3146 20.8127ZM8.66241 48.5749C8.82764 47.4795 9.37476 45.284 11.1826 43.0411C11.4338 42.7295 11.8461 42.5646 12.2659 42.598C13.6607 42.7078 17.0678 42.9441 20.5925 42.9441C24.1174 42.9441 27.5244 42.7078 28.9192 42.598C29.3391 42.5646 29.7513 42.7295 30.0023 43.0411C31.8103 45.284 32.3573 47.4795 32.5229 48.5749C32.5932 49.041 32.3504 49.5004 31.9023 49.7258C30.6605 50.351 27.5089 51.4352 20.5925 51.4352C13.6763 51.4352 10.5246 50.351 9.28245 49.7258C8.83439 49.5004 8.59202 49.041 8.66241 48.5749Z" fill="#3F4045"/>
<path d="M30.6097 4.9007C31.5294 5.15747 32.3822 5.61539 33.0779 6.22624C33.2591 6.38526 33.435 6.55758 33.6607 6.65731C33.8166 6.72599 34.005 6.7492 34.1675 6.7069C33.1926 5.47958 31.6985 4.62558 29.9825 4.41639L29.9807 4.43261C29.9899 4.69849 30.3329 4.82263 30.6097 4.9007Z" fill="#EF3725"/>
<path d="M10.576 4.9007C9.65622 5.15747 8.80351 5.61539 8.10759 6.22624C7.92634 6.38526 7.75099 6.55758 7.52506 6.65731C7.3691 6.72599 7.18069 6.7492 7.01798 6.7069C7.99294 5.47958 9.48719 4.62558 11.2032 4.41639L11.2048 4.43261C11.1956 4.69849 10.8529 4.82263 10.576 4.9007Z" fill="#EF3725"/>
</svg>
